<?xml version="1.0" standalone="no"?>
<!DOCTYPE svg PUBLIC "-//W3C//DTD SVG 20010904//EN"
 "http://www.w3.org/TR/2001/REC-SVG-20010904/DTD/svg10.dtd">
<svg version="1.0" xmlns="http://www.w3.org/2000/svg"
 width="100.000000pt" height="100.000000pt" viewBox="0 0 100.000000 100.000000"
 preserveAspectRatio="xMidYMid meet">

<g transform="translate(0.000000,100.000000) scale(0.100000,-0.100000)"
fill="#000000" stroke="none">
<path d="M420 881 c-81 -26 -129 -74 -149 -146 -14 -52 -14 -418 0 -470 15
-55 52 -101 102 -127 63 -34 195 -32 257 2 49 28 84 73 100 129 13 47 13 415
0 462 -27 97 -97 148 -213 155 -39 2 -83 0 -97 -5z m154 -22 c65 -16 113 -60
131 -121 21 -72 21 -403 0 -474 -22 -75 -81 -120 -174 -131 -113 -13 -209 40
-236 129 -21 73 -21 403 0 476 31 103 149 154 279 121z"/>
<path d="M429 775 c-51 -28 -59 -64 -59 -275 0 -213 8 -248 61 -275 63 -33
156 -8 183 50 23 48 23 402 0 450 -27 58 -123 84 -185 50z m130 -19 c46 -24
51 -51 51 -257 0 -145 -3 -197 -14 -218 -35 -68 -156 -69 -191 -2 -22 44 -22
398 1 442 24 48 96 64 153 35z"/>
<path d="M322 645 c0 -16 2 -22 5 -12 2 9 2 23 0 30 -3 6 -5 -1 -5 -18z"/>
<path d="M324 445 c0 -82 2 -115 3 -72 2 43 2 110 0 150 -1 40 -3 5 -3 -78z"/>
</g>
</svg>
