<?xml version="1.0" standalone="no"?>
<!DOCTYPE svg PUBLIC "-//W3C//DTD SVG 20010904//EN"
 "http://www.w3.org/TR/2001/REC-SVG-20010904/DTD/svg10.dtd">
<svg version="1.0" xmlns="http://www.w3.org/2000/svg"
 width="100.000000pt" height="100.000000pt" viewBox="0 0 100.000000 100.000000"
 preserveAspectRatio="xMidYMid meet">

<g transform="translate(0.000000,100.000000) scale(0.100000,-0.100000)"
fill="#000000" stroke="none">
<path d="M273 880 c-12 -5 -27 -18 -33 -29 -12 -24 -9 -32 99 -219 39 -68 71
-127 71 -132 0 -4 -40 -77 -90 -161 -49 -84 -90 -159 -90 -167 0 -22 48 -62
74 -62 31 0 46 19 125 163 36 65 67 117 71 117 4 0 35 -52 71 -117 79 -144 94
-163 125 -163 26 0 74 40 74 62 0 7 -41 82 -90 167 -50 84 -90 157 -90 161 0
4 39 75 86 158 94 167 101 196 51 220 -55 26 -70 12 -149 -133 -40 -74 -75
-135 -78 -135 -3 0 -34 55 -70 122 -86 161 -97 172 -157 148z m137 -155 c43
-77 83 -140 90 -140 7 0 47 63 90 140 42 77 84 141 93 143 24 5 57 -16 57 -37
0 -10 -38 -86 -85 -167 -47 -82 -85 -155 -85 -163 0 -7 41 -86 92 -174 l92
-159 -23 -19 c-46 -38 -52 -32 -151 149 -39 72 -76 132 -80 132 -5 0 -43 -63
-85 -139 -41 -77 -83 -145 -91 -152 -17 -14 -61 1 -70 24 -3 8 36 84 85 169
50 85 91 161 91 169 0 8 -38 81 -85 163 -47 81 -85 157 -85 167 0 10 8 23 18
28 39 24 54 9 132 -134z"/>
<path d="M656 765 c-9 -14 -13 -25 -8 -25 5 0 14 11 20 25 6 14 10 25 8 25 -2
0 -11 -11 -20 -25z"/>
<path d="M600 663 c-18 -32 -42 -73 -52 -90 -11 -18 -16 -33 -11 -33 9 0 105
171 99 177 -2 2 -18 -22 -36 -54z"/>
</g>
</svg>
